# xmcd
#
# Track frame offsets: 
#        150
#        15294
#        38661
#        56853
#        77625
#        96911
#        121721
#        139618
#        160220
#        174190
#        188691
#        204054
#        221137
#        235468
#        253740
#        256849
#        273170
#        288523
#        301256
#        320711
#
# Disc length: 4570 seconds
#
# Revision: 1
# Processed by: cddbd v1.5.2PL0 Copyright (c) Steve Scherf et al.
# Submitted via: ExactAudioCopy v0.95b4
#
DISCID=0d11d814
DTITLE=Faithful Breath - Rock Lion and Hard Breath
DYEAR=2012
DGENRE=Heavy Metal
TTITLE0=Hurricane
TTITLE1=Better Times
TTITLE2=Rock City
TTITLE3=Rolling Into Our Lives
TTITLE4=Down, Down
TTITLE5=Never Be Like You
TTITLE6=No Time
TTITLE7=Rock 'n Roll Women
TTITLE8=Killers On The Loose
TTITLE9=Give Me What I Need
TTITLE10=Already Too Late
TTITLE11=Dark Angel
TTITLE12=Under My Wheels
TTITLE13=Kids, We Want The World
TTITLE14=Illusions (Instrumental)
TTITLE15=Like An Eagle In The Sky
TTITLE16=Warriors
TTITLE17=Riding To Mongolia (Instrumental)
TTITLE18=Fly To Another Star
TTITLE19=Night Comes Again
EXTD=
EXTT0=
EXTT1=
EXTT2=
EXTT3=
EXTT4=
EXTT5=
EXTT6=
EXTT7=
EXTT8=
EXTT9=
EXTT10=
EXTT11=
EXTT12=
EXTT13=
EXTT14=
EXTT15=
EXTT16=
EXTT17=
EXTT18=
EXTT19=
PLAYORDER=
